<svg xmlns="http://www.w3.org/2000/svg" xmlns:svg="http://www.w3.org/2000/svg" id="draw" x="0" y="0" enable-background="new 0 0 291.424 291.77" version="1.1" viewBox="0 0 291.424 291.77" xml:space="preserve"><metadata id="metadata13908"/><defs id="defs13906"><rect id="rect1674" width="20.004" height="19.434" x="64.295" y="257.162"/><rect id="rect1668" width="21.456" height="14.069" x="57.182" y="12.768"/><rect id="rect1674-3" width="20.004" height="19.434" x="64.295" y="257.162"/><rect id="rect1674-6" width="20.004" height="19.434" x="64.295" y="257.162"/><rect id="rect1674-8" width="20.004" height="19.434" x="64.295" y="257.162"/><rect id="rect1674-9" width="20.004" height="19.434" x="64.295" y="257.162"/><rect id="rect1674-9-0" width="20.004" height="19.434" x="64.295" y="257.162"/><rect id="rect1674-9-0-3" width="20.004" height="19.434" x="64.295" y="257.162"/><rect id="rect1674-9-0-5" width="20.004" height="19.434" x="64.295" y="257.162"/></defs><title id="title13869">QuadRotorX</title><rect style="fill:#4ec3e8;fill-opacity:.8;stroke-width:.703099" id="rect866" width="182.879" height="182.879" x="54.337" y="54.008"/><path style="fill:#159e1f;fill-opacity:.8;stroke-width:1.32638" id="path978" d="m 41.75804,283.31181 64.75142,-0.1091 -34.35904,-46.53234"/><path style="fill:#159e1f;fill-opacity:.8;stroke-width:1.32638" id="path978-3" d="m 8.0625538,189.05596 0.1091,64.75142 46.5323452,-34.35904"/><path style="fill:#159e1f;fill-opacity:.8;stroke-width:1.32638" id="path978-3-5" d="m 7.6111718,42.233006 0.1091,64.751414 46.5323442,-34.359034"/><path style="fill:#159e1f;fill-opacity:.8;stroke-width:1.32638" id="path978-3-0" d="M 283.3143,102.92315 283.2052,38.171731 236.67284,72.530766"/><path style="fill:#159e1f;fill-opacity:.8;stroke-width:1.32638" id="path978-3-5-9" d="m 283.76568,249.7461 -0.1091,-64.75142 -46.53235,34.35904"/><path style="fill:#159e1f;fill-opacity:.8;stroke-width:1.32638" id="path978-5" d="m 186.0159,282.76127 64.75142,-0.1091 -34.35904,-46.53235"/><path style="fill:#159e1f;fill-opacity:.8;stroke-width:1.32638" id="path978-6" d="m 249.48837,7.3723165 -64.75142,0.1091 34.35904,46.5323455"/><path style="fill:#159e1f;fill-opacity:.8;stroke-width:1.32638" id="path978-5-2" d="M 105.23051,7.9228645 40.479095,8.0319644 74.838131,54.56431"/><path id="path13875-2" fill="#fff" stroke="#000" stroke-miterlimit="10" d="m 177.46535,152.08429 -25.44869,25.44869 c -2.72029,2.72029 -7.13013,2.72029 -9.84972,0 l -25.44868,-25.44869 c -2.7203,-2.72029 -2.7203,-7.13013 0,-9.84972 l 25.44868,-25.44868 c 2.72029,-2.72029 7.13013,-2.72029 9.84972,0 l 25.44869,25.44868 c 2.72029,2.72029 2.72029,7.13013 0,9.84972 z" style="stroke-width:.703099"/><polygon id="polygon13877-7" fill="#ff442b" stroke="#000" stroke-miterlimit="10" points="145.645 117.211 163.823 168.211 127.468 168.211" transform="matrix(0.70309945,0,0,0.70309945,44.68853,44.358917)"/><text id="text1672" transform="matrix(1.8712033,0,0,1.8712033,-56.149908,-232.98716)" xml:space="preserve" style="font-size:16px;white-space:pre;shape-inside:url(#rect1674);fill:#fff;fill-opacity:.8"><tspan id="tspan2022" x="64.295" y="271.72">1</tspan></text><text id="text1672-6" transform="matrix(1.8712033,0,0,1.8712033,-54.90599,-471.96664)" xml:space="preserve" style="font-size:16px;white-space:pre;shape-inside:url(#rect1674-3);display:inline;fill:#fff;fill-opacity:.8"><tspan id="tspan2024" x="64.295" y="271.72">2</tspan></text><text id="text1672-1" transform="matrix(1.8712033,0,0,1.8712033,88.181331,-233.48182)" xml:space="preserve" style="font-size:16px;white-space:pre;shape-inside:url(#rect1674-6);display:inline;fill:#fff;fill-opacity:.8"><tspan id="tspan2026" x="64.295" y="271.72">3</tspan></text><text id="text1672-7" transform="matrix(1.8712033,0,0,1.8712033,89.923516,-472.9994)" xml:space="preserve" style="font-size:16px;white-space:pre;shape-inside:url(#rect1674-8);display:inline;fill:#fff;fill-opacity:.8"><tspan id="tspan2028" x="64.295" y="271.72">4</tspan></text><text id="text1672-2" transform="matrix(1.8712033,0,0,1.8712033,-107.88311,-425.85878)" xml:space="preserve" style="font-size:16px;white-space:pre;shape-inside:url(#rect1674-9);display:inline;fill:#fff;fill-opacity:.8"><tspan id="tspan2030" x="64.295" y="271.72">5</tspan></text><text id="text1672-2-2" transform="matrix(1.8712033,0,0,1.8712033,140.31603,-426.60417)" xml:space="preserve" style="font-size:16px;white-space:pre;shape-inside:url(#rect1674-9-0);display:inline;fill:#fff;fill-opacity:.8"><tspan id="tspan2032" x="64.295" y="271.72">6</tspan></text><text id="text1672-2-2-7" transform="matrix(1.8712033,0,0,1.8712033,-106.57328,-277.85487)" xml:space="preserve" style="font-size:16px;white-space:pre;shape-inside:url(#rect1674-9-0-3);display:inline;fill:#fff;fill-opacity:.8"><tspan id="tspan2034" x="64.295" y="271.72">7</tspan></text><text id="text1672-2-2-9" transform="matrix(1.8712033,0,0,1.8712033,140.59859,-279.63807)" xml:space="preserve" style="font-size:16px;white-space:pre;shape-inside:url(#rect1674-9-0-5);display:inline;fill:#fff;fill-opacity:.8"><tspan id="tspan2036" x="64.295" y="271.72">8</tspan></text></svg>