<svg xmlns="http://www.w3.org/2000/svg" xmlns:svg="http://www.w3.org/2000/svg" id="draw" x="0" y="0" enable-background="new 0 0 433.662 366.158" version="1.1" viewBox="0 0 433.662 366.158" xml:space="preserve"><metadata id="metadata33373"/><title id="title33326">VTOLTiltRotor</title><rect id="rect33328" width="194.965" height="6.11" x="119.349" y="51.786" fill="#FFF" stroke="#000" stroke-miterlimit="10"/><rect id="rect33330" width="6.12" height="104.473" x="214.357" y="174.37" fill="#FFF" stroke="#000" stroke-miterlimit="10"/><path id="path33344" fill="#4EC3E8" stroke="#000" stroke-miterlimit="10" d="M227.402,211.885c117.211,5.687,205.717,76.149,205.717,76.149 s-0.8-20.38-1.595-33.809s-4.253-18.01-4.253-18.01s-94.221-100-101.264-106.956s-7.575-10.585-25.382-10.585 c-66.712,0-57.808-63.51-57.808-71.251s-3.522-10.98-4.917-12.639s-3.721-7.267-8.505-21.012 c-4.16-11.95-10.727-13.152-12.372-13.262V0.501c0,0-0.068,0-0.193,0s-0.193,0-0.193,0V0.51c-1.645,0.11-8.213,1.311-12.372,13.262 c-4.784,13.745-7.11,19.353-8.505,21.012s-4.917,4.9-4.917,12.639s8.9,71.251-57.808,71.251c-17.808,0-18.339,3.634-25.382,10.585 S6.389,236.215,6.389,236.215s-3.455,4.582-4.253,18.01s-1.595,33.809-1.595,33.809s88.506-70.461,205.717-76.149H227.402 L227.402,211.885z"/><path id="path33346" fill="#159E1F" stroke="#000" stroke-miterlimit="10" d="M299.525,223.521c50.117,13.578,90.1,35.681,112.8,50.161 l-0.235-20.146l-92.154-61.557L299.525,223.521z"/><path id="path33348" fill="#159E1F" stroke="#000" stroke-miterlimit="10" d="M134.187,223.521c-50.117,13.578-90.1,35.681-112.8,50.161 l0.676-20.44l91.713-61.262L134.187,223.521z"/><g id="g40598" transform="translate(260.84055,3.465239)" style="opacity:.8"><ellipse id="ellipse40596" cx="50.994" cy="50.986" rx="50.993" ry="51.004" transform="matrix(0.7051,-0.7091,0.7091,0.7051,-21.1165,51.1916)" style="fill:#159e1f"/></g><path style="fill:#fff;stroke:#000;stroke-miterlimit:10" id="path41452" stroke-miterlimit="10" d="m 319.7907,45.861569 c -4.374,-4.384 -11.473,-4.393 -15.858,-0.019 -4.384,4.374 -4.393,11.473 -0.019,15.858 4.365,4.375 11.447,4.394 15.835,0.042 4.397,-4.335 4.446,-11.414 0.111,-15.811 -0.023,-0.024 -0.046,-0.047 -0.069,-0.07 z"/><g id="text7991" aria-label="1" transform="translate(19.468699,3.184569)" style="font-style:normal;font-variant:normal;font-weight:400;font-stretch:normal;font-size:33.3333px;line-height:125%;font-family:sans-serif;-inkscape-font-specification:sans-serif;letter-spacing:0;word-spacing:0;fill:#fff;fill-opacity:1;stroke:none;stroke-width:1px;stroke-linecap:butt;stroke-linejoin:miter;stroke-opacity:1"><path id="path42777" d="m 292.91522,13.279992 h -5.23333 v -2.1 q 3.4,-0.433333 4.4,-1.1999998 1,-0.7333334 1.7,-3.1000003 0.0667,-0.2 0.13333,-0.4 h 1.93334 V 30.113327 h -2.93334 z" style="font-style:normal;font-variant:normal;font-weight:400;font-stretch:normal;font-size:33.3333px;font-family:FreeSans;-inkscape-font-specification:FreeSans;fill:#fff;fill-opacity:1"/></g><path id="path7870" d="m 275.81243,34.509449 c -7.20006,7.64284 -8.4415,12.48612 -9.72169,18.99975 l 12.18688,0.125 c -2.57083,-4.08998 -3.31842,-10.98968 -2.46519,-19.12475 z" style="fill:#fff;fill-opacity:1;fill-rule:evenodd;stroke:none;stroke-width:1px;stroke-linecap:butt;stroke-linejoin:miter;stroke-opacity:1"/><path style="fill:none;fill-opacity:1;fill-rule:evenodd;stroke:#ffffec;stroke-width:2.51339;stroke-linecap:butt;stroke-linejoin:miter;stroke-miterlimit:4;stroke-dasharray:none;stroke-opacity:1" id="path7872" d="m 223.94673,38.425681 c -3.13084,3.863564 -7.10954,7.019918 -11.58403,9.189766" transform="rotate(115.85295,240.36088,69.261464)"/><path style="fill:#fff;fill-opacity:1;fill-rule:evenodd;stroke:none;stroke-width:1px;stroke-linecap:butt;stroke-linejoin:miter;stroke-opacity:1" id="path7874" d="m 349.812,69.311699 c 7.20007,-7.64284 8.44151,-12.48613 9.7217,-18.99975 l -12.18689,-0.125 c 2.57083,4.08997 3.31842,10.98968 2.46519,19.12475 z"/><path id="path7876" d="m 223.94673,38.425681 c -3.13084,3.863564 -7.10954,7.019918 -11.58403,9.189766" transform="rotate(-64.14705,285.12427,-63.705331)" style="fill:none;fill-opacity:1;fill-rule:evenodd;stroke:#ffffec;stroke-width:2.51339;stroke-linecap:butt;stroke-linejoin:miter;stroke-miterlimit:4;stroke-dasharray:none;stroke-opacity:1"/><g id="g41456" opacity=".8" transform="translate(65.677247,2.049136)"><ellipse id="ellipse41454" cx="50.996" cy="50.988" fill="#4ec3e8" rx="50.993" ry="51.004" transform="matrix(0.7051,-0.7091,0.7091,0.7051,-21.1175,51.1935)"/></g><path id="path41458" fill="#fff" stroke="#000" stroke-miterlimit="10" d="m 124.59125,45.108136 c 4.384,4.374 4.393,11.473 0.019,15.858 -4.374,4.384 -11.473,4.393 -15.858,0.019 -4.375,-4.365 -4.394,-11.447 -0.042,-15.835 4.335,-4.397 11.414,-4.446 15.811,-0.111 0.024,0.023 0.047,0.046 0.07,0.069 z"/><path style="fill:#fff;fill-opacity:1;fill-rule:evenodd;stroke:none;stroke-width:1px;stroke-linecap:butt;stroke-linejoin:miter;stroke-opacity:1" id="path35761" d="m 77.521877,70.967046 c -7.20006,-7.64284 -8.4415,-12.48612 -9.72169,-18.99975 l 12.18688,-0.125 c -2.57083,4.08998 -3.31842,10.98968 -2.46519,19.12475 z"/><path id="path35763" d="m 223.94673,38.425681 c -3.13084,3.863564 -7.10954,7.019918 -11.58403,9.189766" transform="matrix(-0.43606294,-0.89991617,-0.89991617,0.43606294,209.21236,222.31736)" style="fill:none;fill-opacity:1;fill-rule:evenodd;stroke:#ffffec;stroke-width:2.51339;stroke-linecap:butt;stroke-linejoin:miter;stroke-miterlimit:4;stroke-dasharray:none;stroke-opacity:1"/><path id="path35765" d="m 153.70397,33.647686 c 7.20007,7.64284 8.44151,12.48613 9.7217,18.99975 l -12.18689,0.125 c 2.57083,-4.08997 3.31842,-10.98968 2.46519,-19.12475 z" style="fill:#fff;fill-opacity:1;fill-rule:evenodd;stroke:none;stroke-width:1px;stroke-linecap:butt;stroke-linejoin:miter;stroke-opacity:1"/><path style="fill:none;fill-opacity:1;fill-rule:evenodd;stroke:#ffffec;stroke-width:2.51339;stroke-linecap:butt;stroke-linejoin:miter;stroke-miterlimit:4;stroke-dasharray:none;stroke-opacity:1" id="path35767" d="m 223.94673,38.425681 c -3.13084,3.863564 -7.10954,7.019918 -11.58403,9.189766" transform="matrix(0.43606294,0.89991617,0.89991617,-0.43606294,22.013487,-117.70258)"/><g id="text35771" aria-label="2" transform="translate(65.677247,2.049136)" style="font-style:normal;font-variant:normal;font-weight:400;font-stretch:normal;font-size:33.3333px;line-height:125%;font-family:sans-serif;-inkscape-font-specification:sans-serif;letter-spacing:0;word-spacing:0;fill:#fff;fill-opacity:1;stroke:none;stroke-width:1px;stroke-linecap:butt;stroke-linejoin:miter;stroke-opacity:1"><path id="path42780" d="m 43.465487,13.850509 q 0.266667,-8.1666668 7.800001,-8.2000001 4.033334,0 6.166667,2.6666668 1.4,1.8333333 1.4,4.2666673 -0.03333,4.4 -5,7.133334 l -3.333334,1.8 q -3.1,1.666667 -3.9,3.533333 -0.266667,0.6 -0.366667,1.333334 h 12.433334 v 2.9 H 42.932154 q 0.233333,-4.266667 1.9,-6.500001 1.433334,-1.866666 4.733334,-3.733333 l 3.066667,-1.733334 q 3.166667,-1.866666 3.2,-4.666667 0,-2.4 -2,-3.6999999 -1.166667,-0.7333334 -2.666667,-0.7333334 -4.366667,0 -4.766667,5.4333333 0,0.1 0,0.2 z" style="font-style:normal;font-variant:normal;font-weight:400;font-stretch:normal;font-size:33.3333px;font-family:FreeSans;-inkscape-font-specification:FreeSans;fill:#fff;fill-opacity:1"/></g><g id="g41462" opacity=".8" transform="translate(45.737767,24.441019)"><ellipse id="ellipse41460" cx="171.349" cy="254.85" fill="#4ec3e8" rx="50.993" ry="51.004" transform="matrix(0.7091,-0.7051,0.7051,0.7091,-129.8543,194.9702)"/></g><path id="path41464" fill="#fff" stroke="#000" stroke-miterlimit="10" d="m 224.95877,270.40202 c -4.374,-4.384 -11.473,-4.393 -15.858,-0.019 -4.384,4.374 -4.393,11.473 -0.019,15.858 4.365,4.375 11.447,4.394 15.835,0.042 4.397,-4.335 4.446,-11.414 0.111,-15.811 -0.023,-0.024 -0.046,-0.047 -0.069,-0.07 z"/><path id="path7870-5" d="m 177.51248,296.99908 c -7.20006,-7.64284 -8.4415,-12.48612 -9.72169,-18.99975 l 12.18688,-0.125 c -2.57083,4.08998 -3.31842,10.98968 -2.46519,19.12475 z" style="fill:#fff;fill-opacity:1;fill-rule:evenodd;stroke:none;stroke-width:1px;stroke-linecap:butt;stroke-linejoin:miter;stroke-opacity:1"/><path style="fill:none;fill-opacity:1;fill-rule:evenodd;stroke:#ffffec;stroke-width:2.51339;stroke-linecap:butt;stroke-linejoin:miter;stroke-miterlimit:4;stroke-dasharray:none;stroke-opacity:1" id="path7872-2" d="m 223.94673,38.425681 c -3.13084,3.863564 -7.10954,7.019918 -11.58403,9.189766" transform="matrix(-0.43606294,-0.89991617,-0.89991617,0.43606294,309.20297,448.34939)"/><path style="fill:#fff;fill-opacity:1;fill-rule:evenodd;stroke:none;stroke-width:1px;stroke-linecap:butt;stroke-linejoin:miter;stroke-opacity:1" id="path7874-1" d="m 253.69458,259.67972 c 7.20007,7.64284 8.44151,12.48613 9.7217,18.99975 l -12.18689,0.125 c 2.57083,-4.08997 3.31842,-10.98968 2.46519,-19.12475 z"/><path id="path7876-6" d="m 223.94673,38.425681 c -3.13084,3.863564 -7.10954,7.019918 -11.58403,9.189766" transform="matrix(0.43606294,0.89991617,0.89991617,-0.43606294,122.00409,108.32946)" style="fill:none;fill-opacity:1;fill-rule:evenodd;stroke:#ffffec;stroke-width:2.51339;stroke-linecap:butt;stroke-linejoin:miter;stroke-miterlimit:4;stroke-dasharray:none;stroke-opacity:1"/><g id="text7991-1" aria-label="3" transform="translate(45.737767,24.441019)" style="font-style:normal;font-variant:normal;font-weight:400;font-stretch:normal;font-size:33.3333px;line-height:125%;font-family:sans-serif;-inkscape-font-specification:sans-serif;letter-spacing:0;word-spacing:0;fill:#fff;fill-opacity:1;stroke:none;stroke-width:1px;stroke-linecap:butt;stroke-linejoin:miter;stroke-opacity:1"><path id="path42774" d="m 171.26706,277.48192 q -3.8,0 -4.4,3.66666 -0.0667,0.63334 -0.1,1.4 h -2.93333 q 0.13333,-7 6.33333,-7.6 0.53333,-0.0333 1.06667,-0.0333 4.66666,0 6.4,3.13333 0.8,1.46667 0.8,3.36667 -0.0333,3.6 -3.3,4.9 3.1,1.06667 3.76666,3.6 0.23334,0.9 0.23334,2.03333 0,4.1 -3.13334,6.1 -2.03333,1.26667 -4.86666,1.26667 -6.53334,0 -7.63334,-6.13333 -0.1,-0.73334 -0.16666,-1.5 h 2.93333 q 0.26667,4.4 3.76667,4.93333 0.56666,0.1 1.2,0.1 3.46666,0 4.53333,-2.63333 0.36667,-0.96667 0.36667,-2.1 -0.0667,-4.26667 -4.9,-4.3 l -1.23334,0.0333 h -0.36666 v -2.5 q 3.76666,-0.0667 4.9,-1.1 0.9,-0.86667 0.9,-2.6 0,-2.83333 -2.33334,-3.73333 -0.83333,-0.3 -1.83333,-0.3 z" style="font-style:normal;font-variant:normal;font-weight:400;font-stretch:normal;font-size:33.3333px;font-family:FreeSans;-inkscape-font-specification:FreeSans;fill:#fff;fill-opacity:1"/></g></svg>