<svg xmlns="http://www.w3.org/2000/svg" xmlns:ev="http://www.w3.org/2001/xml-events" xmlns:xlink="http://www.w3.org/1999/xlink" width="770.268" height="233.575" class="st9" color-interpolation-filters="sRGB" viewBox="0 0 577.701 175.181" xml:space="preserve"><style type="text/css">.st1{fill:#fff;stroke:#41719c;stroke-width:.75}.st2{fill:#41719c;font-family:Calibri;font-size:.833336em}.st3{font-family:Courier New}.st3,.st4{font-size:1em}.st5,.st6{stroke:#41719c}.st5{marker-end:url(#mrkr4-62);marker-start:url(#mrkr4-60);stroke-linecap:round;stroke-linejoin:round;stroke-width:1}.st6{fill:#41719c;fill-opacity:1;stroke-opacity:1;stroke-width:.28409090909091}.st7{fill:none;stroke:none;stroke-width:.25}.st8{fill:#41719c;font-family:Calibri;font-size:1.00001em}.st9{fill:none;fill-rule:evenodd;font-size:12px;overflow:visible;stroke-linecap:square;stroke-miterlimit:3}</style><defs id="Markers"><g id="lend4"><path d="M 2 1 L 0 0 L 2 -1 L 2 1" style="stroke:none"/></g><marker id="mrkr4-60" class="st6" markerUnits="strokeWidth" orient="auto" overflow="visible" refX="6.68"><use transform="scale(3.52)" xlink:href="#lend4"/></marker><marker id="mrkr4-62" class="st6" markerUnits="strokeWidth" orient="auto" overflow="visible" refX="-7.04"><use transform="scale(-3.52,-3.52)" xlink:href="#lend4"/></marker></defs><g><title>Page-1</title><g id="shape1-1" transform="translate(429.165,-50.4584)"><title>Rectangle</title><desc>Zenoh RMW implementation rmw_zenoh</desc><rect width="137.197" height="34.016" x="0" y="141.165" class="st1"/><text x="9.51" y="155.08" class="st2">Zenoh RMW implementation<tspan x="41.59" class="st3" dy="1.213em">rmw_zenoh</tspan></text></g><g id="shape2-5" transform="translate(429.165,-90.1434)"><title>Rectangle.2</title><desc>ROS Middleware (RMW) API</desc><rect width="137.197" height="34.016" x="0" y="141.165" class="st1"/><text x="11.17" y="161.17" class="st2">ROS Middleware (RMW) API</text></g><g id="shape4-8" transform="translate(509.953,-129.828)"><title>Rectangle.4</title><desc>ROS 2 Node</desc><rect width="56.409" height="34.581" x="0" y="140.6" class="st1"/><text x="16.22" y="154.89" class="st2">ROS 2<tspan x="17.23" class="st4" dy="1.2em">Node</tspan></text></g><g id="shape5-12" transform="translate(429.165,-129.828)"><title>Rectangle.5</title><desc>ROS 2 Node</desc><rect width="56.409" height="34.581" x="0" y="140.6" class="st1"/><text x="16.22" y="154.89" class="st2">ROS 2<tspan x="17.23" class="st4" dy="1.2em">Node</tspan></text></g><g id="shape6-16" transform="translate(93.027,-51.0236)"><title>Rectangle.6</title><desc>PX4 Zenoh-Pico Node</desc><rect width="83.288" height="113.386" x="0" y="61.795" class="st1"/><text x="10.07" y="115.49" class="st2">PX4 Zenoh-Pico <tspan x="30.67" class="st4" dy="1.2em">Node</tspan></text></g><g id="shape7-20" transform="translate(13.6063,-130.394)"><title>Rectangle.7</title><desc>uORB Topic α</desc><rect width="75.118" height="34.016" x="0" y="141.165" class="st1"/><text x="10.13" y="161.17" class="st2">uORB Topic <tspan class="st4">α</tspan></text></g><g id="shape8-24" transform="translate(13.6063,-90.7087)"><title>Rectangle.8</title><desc>uORB Topic β</desc><rect width="75.118" height="34.016" x="0" y="141.165" class="st1"/><text x="10.31" y="161.17" class="st2">uORB Topic <tspan class="st4">β</tspan></text></g><g id="shape9-28" transform="translate(13.6063,-51.0236)"><title>Rectangle.9</title><desc>uORB Topic γ</desc><rect width="75.118" height="34.016" x="0" y="141.165" class="st1"/><text x="10.73" y="161.17" class="st2">uORB Topic <tspan class="st4">γ</tspan></text></g><g id="shape10-32" transform="translate(183.128,-130.394)"><title>Rectangle.10</title><desc>ROS2 Topic α</desc><rect width="75.118" height="34.016" x="0" y="141.165" class="st1"/><text x="10.64" y="161.17" class="st2">ROS2 Topic <tspan class="st4">α</tspan></text></g><g id="shape11-36" transform="translate(183.128,-90.7087)"><title>Rectangle.11</title><desc>ROS2 Topic β</desc><rect width="75.118" height="34.016" x="0" y="141.165" class="st1"/><text x="10.82" y="161.17" class="st2">ROS2 Topic <tspan class="st4">β</tspan></text></g><g id="shape12-40" transform="translate(183.128,-51.0236)"><title>Rectangle.12</title><desc>ROS2 Topic γ</desc><rect width="75.118" height="34.016" x="0" y="141.165" class="st1"/><text x="11.25" y="161.17" class="st2">ROS2 Topic <tspan class="st4">γ</tspan></text></g><g id="shape18-44" transform="translate(13.6063,-11.3386)"><title>Rectangle.18</title><desc>PX4</desc><rect width="245.197" height="34.016" x="0" y="141.165" class="st1"/><text x="114.89" y="161.17" class="st2">PX4</text></g><g id="shape19-47" transform="translate(322.583,-49.8088)"><title>Rectangle.19</title><desc>Zenoh Router zenohd</desc><rect width="96.732" height="72.549" x="0" y="102.632" class="st1"/><text x="20.63" y="135.82" class="st2">Zenoh Router<tspan x="30.36" class="st3" dy="1.213em">zenohd</tspan></text></g><g id="shape20-51" transform="translate(322.583,-10.1237)"><title>Rectangle.20</title><desc>Linux</desc><rect width="245.197" height="34.016" x="0" y="141.165" class="st1"/><text x="111.93" y="161.17" class="st2">Linux</text></g><g id="shape21-54" transform="translate(258.246,-147.402)"><title>Dynamic connector</title><path d="M6.68 175.18 L7.04 175.18 L30.89 175.18 L30.89 236.5 L57.3 236.5" class="st5"/></g><g id="shape22-63" transform="translate(258.246,-107.717)"><title>Dynamic connector.22</title><path d="M6.68 175.18 L7.04 175.18 L30.89 175.18 L30.89 196.81 L57.3 196.81" class="st5"/></g><g id="shape23-70" transform="translate(258.246,-68.0315)"><title>Dynamic connector.23</title><path d="M6.68 175.18 L7.04 175.18 L30.89 175.18 L30.89 157.13 L57.3 157.13" class="st5"/></g><g id="shape24-77" transform="translate(251.717,-17.1438)"><title>Sheet.24</title><desc>UART TCP UDP</desc><rect width="75.118" height="46.636" x="0" y="128.545" class="st7"/><text x="24.06" y="141.06" class="st8">UART<tspan x="28.34" class="st4" dy="1.2em">TCP</tspan><tspan x="26.92" class="st4" dy="1.2em">UDP</tspan></text></g></g></svg>